<?xml version="1.0" encoding="utf-8"?>
<!-- Generator: Adobe Illustrator 24.1.1, SVG Export Plug-In . SVG Version: 6.00 Build 0)  -->
<svg version="1.1" id="Layer_1" xmlns="http://www.w3.org/2000/svg" xmlns:xlink="http://www.w3.org/1999/xlink" x="0px" y="0px"
	 viewBox="0 0 64 64" style="enable-background:new 0 0 64 64;" xml:space="preserve">
<style type="text/css">
	.st0{fill:#29AB87;}
</style>
<path class="st0" d="M42.3,21.4c-1.2,0-2.3,0.5-3.2,1.3L28,33.9l-3.2-3.2c-0.8-0.8-2-1.3-3.2-1.3c-1.2,0-2.3,0.5-3.2,1.3
	c-0.8,0.8-1.3,2-1.3,3.2c0,1.2,0.5,2.3,1.3,3.2l6.4,6.4c0.8,0.8,2,1.3,3.2,1.3c1.2,0,2.3-0.5,3.2-1.3l14.3-14.3
	c0.6-0.6,1.1-1.4,1.2-2.3c0.2-0.9,0.1-1.8-0.3-2.6c-0.3-0.8-0.9-1.5-1.7-2C44.1,21.7,43.2,21.4,42.3,21.4L42.3,21.4z"/>
<path class="st0" d="M32,3c-5.7,0-11.3,1.7-16.1,4.9c-4.8,3.2-8.5,7.7-10.7,13C3,26.2,2.4,32,3.6,37.7c1.1,5.6,3.9,10.8,7.9,14.8
	c4.1,4.1,9.2,6.8,14.8,7.9c5.6,1.1,11.5,0.5,16.8-1.7c5.3-2.2,9.8-5.9,13-10.7C59.3,43.3,61,37.7,61,32c0-7.7-3.1-15.1-8.5-20.5
	C47.1,6.1,39.7,3,32,3L32,3z M32,52c-4,0-7.8-1.2-11.1-3.4c-3.3-2.2-5.9-5.3-7.4-9C12,36,11.6,32,12.4,28.1s2.7-7.4,5.5-10.2
	c2.8-2.8,6.4-4.7,10.2-5.5S36,12,39.7,13.5c3.7,1.5,6.8,4.1,9,7.4C50.8,24.2,52,28,52,32c0,5.3-2.1,10.4-5.9,14.1
	C42.4,49.9,37.3,52,32,52z"/>
</svg>
