<?xml version="1.0" encoding="utf-8"?>
<!-- Generator: Adobe Illustrator 24.1.1, SVG Export Plug-In . SVG Version: 6.00 Build 0)  -->
<svg version="1.1" id="Layer_1" xmlns="http://www.w3.org/2000/svg" xmlns:xlink="http://www.w3.org/1999/xlink" x="0px" y="0px"
	 viewBox="0 0 129 129" style="enable-background:new 0 0 129 129;" xml:space="preserve">
<g>
	<g>
		<path d="M61.5,107.1c0.4,0.4,0.9,0.7,1.4,0.9c0,0,0,0,0.1,0c0.5,0.2,1,0.3,1.6,0.3s1.1-0.1,1.6-0.3c0,0,0,0,0.1,0
			c0.5-0.2,1-0.5,1.4-0.9l56.9-56.9c1.7-1.7,1.7-4.4,0-6.1c-1.7-1.7-4.4-1.7-6.1,0L68.8,93.6V10.8c0-2.4-1.9-4.3-4.3-4.3
			s-4.3,1.9-4.3,4.3v82.9L10.7,44.1c-1.7-1.7-4.4-1.7-6.1,0s-1.7,4.4,0,6.1C4.6,50.2,61.5,107.1,61.5,107.1z"/>
		<path d="M7.6,122.6h113.8c2.4,0,4.3-1.9,4.3-4.3s-1.9-4.3-4.3-4.3H7.6c-2.4,0-4.3,1.9-4.3,4.3C3.3,120.6,5.2,122.6,7.6,122.6z"/>
	</g>
</g>
</svg>
