<?xml version="1.0" encoding="utf-8"?>
<!-- Generator: Adobe Illustrator 24.1.1, SVG Export Plug-In . SVG Version: 6.00 Build 0)  -->
<svg version="1.1" id="Layer_1" xmlns="http://www.w3.org/2000/svg" xmlns:xlink="http://www.w3.org/1999/xlink" x="0px" y="0px"
	 viewBox="0 0 67.5 68.2" style="enable-background:new 0 0 67.5 68.2;" xml:space="preserve">
<style type="text/css">
	.st0{fill:#6AC5FE;}
</style>
<path class="st0" d="M27.5,52.4c-0.8,0-1.6-0.3-2.1-0.8L13.9,40.7c-1.3-1.2-1.3-3.2-0.1-4.4C15,35,17,35,18.2,36.2l9.1,8.6
	l21.1-23.3c1.2-1.3,3.1-1.4,4.4-0.2s1.4,3.1,0.2,4.4L29.8,51.3c-0.6,0.6-1.4,1-2.2,1C27.6,52.4,27.5,52.4,27.5,52.4z"/>
<path class="st0" d="M64.4,68.2H3.1c-1.7,0-3.1-1.4-3.1-3.1v-62C0,1.4,1.4,0,3.1,0h61.2c1.7,0,3.1,1.4,3.1,3.1v62
	C67.5,66.8,66.1,68.2,64.4,68.2z M6.2,62h55V6.2h-55C6.2,6.2,6.2,62,6.2,62z"/>
</svg>
